<svg xmlns="http://www.w3.org/2000/svg" viewBox="0 0 512 512"><path d="M452.422 155.809c-36.6-36.713-87.875-59.612-143.837-59.578h-73.337V8.939L46.711 162.247 235.248 315.57v-86.497h73.337c19.694.033 36.924 7.799 49.906 20.658 12.868 12.99 20.634 30.212 20.667 49.914-.033 19.702-7.8 36.924-20.667 49.897-12.982 12.876-30.212 20.642-49.906 20.676H0V503.06h308.585c55.962.033 107.237-22.866 143.837-59.578 36.698-36.6 59.612-87.875 59.578-143.837.033-55.961-22.88-107.237-59.578-143.836z" fill="#ffffff"/></svg>
